<svg width="106" height="16" viewBox="0 0 106 16" fill="none" xmlns="http://www.w3.org/2000/svg">
<path d="M25.4229 0.630014C23.6591 0.880053 22.1589 1.60314 20.9492 2.79252C20.2667 3.45478 19.9018 3.9481 19.5369 4.66443C18.4353 6.85397 18.5637 9.82741 19.8545 12.0034C20.9492 13.8483 22.9496 15.0512 25.4364 15.3621C26.3014 15.4702 27.8152 15.4094 28.5856 15.2337C32.3362 14.3822 34.6068 11.4155 34.4446 7.59057C34.3568 5.67811 33.6945 4.16435 32.3429 2.82631C31.2482 1.7383 30.1061 1.12333 28.518 0.758412C27.8557 0.602982 26.1055 0.535404 25.4229 0.630014ZM27.9503 3.4683C29.4844 3.86025 30.6737 5.05639 31.0995 6.6242C31.2955 7.35405 31.2887 8.61776 31.0927 9.36788C30.7954 10.4964 30.0655 11.5169 29.1803 12.0372C28.2882 12.5643 27.0853 12.8009 25.9973 12.6657C24.3552 12.4562 23.1928 11.6723 22.5373 10.341C22.1454 9.55034 22.0102 8.92862 22.017 7.92846C22.017 6.52283 22.4157 5.51592 23.3145 4.61713C24.4903 3.44127 26.1933 3.02228 27.9503 3.4683Z" fill="#151515"/>
<path d="M92.6768 0.663778C90.8116 0.954364 89.2844 1.90046 88.6559 3.16417C88.3653 3.7521 88.2572 4.22515 88.2572 4.92121C88.2572 6.79312 89.2303 7.9825 91.2374 8.56367C91.8118 8.72586 92.2578 8.80695 94.204 9.08402C95.8056 9.30703 96.3057 9.47598 96.6842 9.91524C96.9612 10.2261 97.0694 10.5707 97.0221 11.0168C96.8869 12.3075 95.5556 13.0103 93.4269 12.909C92.3727 12.8616 91.4266 12.6657 90.2169 12.2467C89.6763 12.0642 89.1965 11.902 89.1424 11.8953C89.0749 11.8885 88.9667 12.1926 88.7572 12.9968C88.5951 13.6118 88.4599 14.1591 88.4599 14.2267C88.4599 14.4295 89.9196 14.9431 91.1968 15.1863C92.447 15.4229 94.3662 15.504 95.3867 15.362C97.9817 14.9904 99.59 13.6388 99.9347 11.5439C100.191 9.96254 99.6846 8.61098 98.5291 7.80004C97.7046 7.22562 96.7788 6.96207 94.3054 6.61066C92.8255 6.40117 92.3659 6.28629 91.9131 6.02949C90.8792 5.4348 91.1292 3.92105 92.3456 3.4007C93.4945 2.90737 95.63 3.02901 97.7114 3.7048C98.1033 3.8332 98.4344 3.92105 98.448 3.90753C98.5291 3.8332 99.1237 1.60312 99.0764 1.55581C98.9683 1.44769 97.7181 1.04222 96.9748 0.880028C95.5759 0.562411 93.8526 0.481317 92.6768 0.663778Z" fill="#151515"/>
<path d="M0 15.1593H10.6774V12.5238H3.04102V0.832719H0V15.1593Z" fill="#151515"/>
<path d="M42.5743 3.46827L45.2301 3.48179L47.8792 3.50206L47.8994 9.3273L47.913 15.1593H50.954V3.46827H56.2251V0.832719H42.5743V3.46827Z" fill="#151515"/>
<path d="M65.3009 5.6443C65.3279 10.8411 65.3279 10.7465 65.7063 11.8007C65.9631 12.5035 66.2807 12.9765 66.9025 13.605C67.7404 14.443 68.6527 14.9228 70.0381 15.2472C70.8896 15.4431 73.0048 15.4567 73.863 15.2674C75.9715 14.8079 77.3906 13.7604 78.1475 12.1048C78.6408 11.0303 78.6205 11.2871 78.6476 5.77946L78.6678 0.832732H75.6944L75.6741 5.47536C75.6471 9.72603 75.6336 10.1585 75.5255 10.4964C75.0119 12.071 73.9441 12.7535 72.0046 12.7535C70.1192 12.7535 68.9974 12.0642 68.5041 10.6113C68.3622 10.1991 68.3554 10.0842 68.3351 5.50914L68.3149 0.832732H65.2738L65.3009 5.6443Z" fill="#151515"/>
<path d="M3.04102 0.832719L3.05454 6.66472L3.07481 12.49H10.6774L6.89298 12.4764L3.1086 12.4562L3.09508 6.62417L3.07481 0.79893H1.53403L0 0.792172L3.04102 0.832719Z" fill="#6B6B6B"/>
<path d="M103.208 2.54589H103.7L104.474 3.66789H103.862L103.208 2.54589ZM102.56 1.14789H103.076V3.66789H102.56V1.14789ZM102.872 1.58589V1.14789H103.406C103.702 1.14789 103.932 1.22189 104.096 1.36989C104.264 1.51389 104.348 1.69789 104.348 1.92189C104.348 2.16189 104.264 2.35589 104.096 2.50389C103.932 2.65189 103.702 2.72589 103.406 2.72589H102.872V2.31789H103.376C103.512 2.31789 103.62 2.28789 103.7 2.22789C103.78 2.16389 103.82 2.07189 103.82 1.95189C103.82 1.82789 103.78 1.73589 103.7 1.67589C103.62 1.61589 103.512 1.58589 103.376 1.58589H102.872ZM101.57 2.46789C101.57 2.73589 101.616 2.98389 101.708 3.21189C101.8 3.43589 101.928 3.63189 102.092 3.79989C102.26 3.96789 102.454 4.09789 102.674 4.18989C102.898 4.28189 103.14 4.32789 103.4 4.32789C103.66 4.32789 103.9 4.28189 104.12 4.18989C104.344 4.09789 104.538 3.96789 104.702 3.79989C104.87 3.63189 105 3.43589 105.092 3.21189C105.184 2.98389 105.23 2.73589 105.23 2.46789C105.23 2.19989 105.184 1.95389 105.092 1.72989C105 1.50189 104.87 1.30389 104.702 1.13589C104.538 0.967886 104.344 0.837886 104.12 0.745886C103.9 0.653886 103.66 0.607886 103.4 0.607886C103.14 0.607886 102.898 0.653886 102.674 0.745886C102.454 0.837886 102.26 0.967886 102.092 1.13589C101.928 1.30389 101.8 1.50189 101.708 1.72989C101.616 1.95389 101.57 2.19989 101.57 2.46789ZM101.24 2.46789C101.24 2.15589 101.294 1.86789 101.402 1.60389C101.514 1.33989 101.666 1.11189 101.858 0.919886C102.054 0.723886 102.284 0.573886 102.548 0.469886C102.812 0.361886 103.096 0.307886 103.4 0.307886C103.708 0.307886 103.992 0.361886 104.252 0.469886C104.516 0.573886 104.744 0.723886 104.936 0.919886C105.132 1.11189 105.284 1.33989 105.392 1.60389C105.504 1.86789 105.56 2.15589 105.56 2.46789C105.56 2.77989 105.504 3.06789 105.392 3.33189C105.284 3.59589 105.132 3.82589 104.936 4.02189C104.744 4.21389 104.516 4.36389 104.252 4.47189C103.992 4.57589 103.708 4.62789 103.4 4.62789C103.096 4.62789 102.812 4.57589 102.548 4.47189C102.284 4.36389 102.054 4.21389 101.858 4.02189C101.666 3.82589 101.514 3.59589 101.402 3.33189C101.294 3.06789 101.24 2.77989 101.24 2.46789Z" fill="black"/>
</svg>
